<?xml version="1.0" encoding="UTF-8"?>
<svg id="camomilla_logo" data-name="Camomilla Logo" xmlns="http://www.w3.org/2000/svg" viewBox="0 0 140 50.88">
  <defs>
    <style>
      .logo-part-1 {
        fill: #6ab946;
      }
      .logo-part-2 {
        fill: #fcb92c;
        fill-rule: evenodd;
      }
      .letter {
        fill: #ebebeb;
      }
    </style>
  </defs>
  <g id="camomilla_logo-group" data-name="Camomilla Logo group">
    <path class="logo-part-2" d="M110.84,39.52l4.42-2.06s-2.14-2.33-2.14-5.57c0-3.04,2.09-5.33,6.04-5.33,4.38,0,6.23,2.76,6.23,5.8,0,2.66-1.95,4.9-1.95,4.9l4.85,2.24-8.73,4.14-8.73-4.14Z"/>
    <path class="logo-part-1" d="M118.02,0c-11.08,0-20.06,8.46-20.06,22.33,0,10.64,5.06,15.17,5.06,15.17l8.63-4.01s-3.92-4.27-3.92-10.2c0-5.58,3.84-9.77,11.08-9.77,8.02,0,11.42,5.06,11.42,10.64,0,4.88-3.58,8.98-3.58,8.98l9.42,4.36s3.92-5.76,3.92-14.91c0-13.34-10.29-22.59-21.98-22.59Z"/>
    <path class="letter" d="M38.03,19.47l1.12-4.93c-2.12,.48-2.2-.56-2.2-2.6V7.53c0-5.17-2.12-7.53-7.85-7.53-6.09,0-8.98,2.64-8.57,5.89l6.21,1.16c-.2-1.8,.48-2.48,1.92-2.48,1.52,0,2.04,.76,2.04,2.88v.56c-6.53,.04-10.82,2-10.82,6.33,0,3.57,2.93,5.49,6.33,5.49,2.92,0,4.37-1.44,5.33-2.8,.52,1.4,2.2,3.13,6.49,2.44Zm-7.33-6.45c-.16,1.72-1.6,2.36-2.8,2.36-1.04,0-1.72-.48-1.72-1.52,0-1.84,2.08-2.28,4.53-2.32v1.48Z"/>
    <path class="letter" d="M83.68,19.83c7.37,0,9.66-4.49,9.66-9.98,0-5.17-2.04-9.86-9.78-9.86s-9.74,4.53-9.74,9.78,2.28,10.06,9.86,10.06Zm-.08-4.65c-2.76,0-3.29-2.64-3.29-5.33s.52-5.21,3.25-5.21,3.29,2.56,3.29,5.29-.52,5.25-3.25,5.25Z"/>
    <path class="letter" d="M11.9,12.62c0,1.6-.92,2.56-2.44,2.56-2.16,0-2.97-1.64-2.97-4.97,0-2.68,.28-5.57,2.97-5.57,1.12,0,2.36,.76,2,3.29l6.13-1.24c.44-4.25-2.92-6.69-8.05-6.69C4.09,0,0,2.44,0,9.86c0,6.33,2.88,9.98,9.38,9.98,5.17,0,7.25-2.48,8.33-6.05l-5.81-1.16Z"/>
    <path class="letter" d="M92.21,41.78l1.12-4.93c-2.12,.48-2.2-.56-2.2-2.6v-4.41c0-5.17-2.12-7.53-7.85-7.53-6.09,0-8.98,2.64-8.57,5.89l6.21,1.16c-.2-1.8,.48-2.48,1.92-2.48,1.52,0,2.04,.76,2.04,2.89v.56c-6.53,.04-10.82,2-10.82,6.33,0,3.57,2.93,5.49,6.33,5.49,2.93,0,4.37-1.44,5.33-2.8,.52,1.4,2.2,3.12,6.49,2.44Zm-7.33-6.45c-.16,1.72-1.6,2.36-2.8,2.36-1.04,0-1.72-.48-1.72-1.52,0-1.84,2.08-2.28,4.53-2.32v1.48Z"/>
    <path class="letter" d="M41.35,41.58h6.25V22.87h-6.25v18.71Z"/>
    <path class="letter" d="M44.48,50.88c-1.92,0-3.53-1.6-3.53-3.53s1.6-3.49,3.53-3.49,3.53,1.56,3.53,3.49-1.56,3.53-3.53,3.53Z"/>
    <path class="letter" d="M30.35,41.58h6.25v-12.3c0-5.85-3.21-6.97-5.97-6.97-4.33,0-5.85,2.64-6.29,3.65-.8-2.72-3.09-3.65-5.49-3.65-4.05,0-5.61,2.4-6.13,3.53v-2.97H6.91v18.71h6.25v-9.34c.32-1.24,1.44-4.65,3.69-4.65,1.28,0,1.8,1.12,1.8,3.29v10.7h6.25v-9.46c.36-1.4,1.48-4.53,3.65-4.53,1.28,0,1.8,1.08,1.8,3.29v10.7Z"/>
    <path class="letter" d="M64.75,15.68h6.25V6.97c0-5.85-3.21-6.97-5.97-6.97-4.33,0-5.85,2.64-6.29,3.65-.8-2.72-3.09-3.65-5.49-3.65-4.05,0-5.61,2.4-6.13,3.53V.56h-5.81V19.27h6.25V9.94c.32-1.24,1.44-4.65,3.69-4.65,1.28,0,1.8,1.12,1.8,3.29v7.1h6.25v-5.86c.36-1.4,1.48-4.53,3.65-4.53,1.28,0,1.8,1.08,1.8,3.29v7.1Z"/>
    <path class="letter" d="M53.07,19.27v22.31h6.25V19.27h-6.25Z"/>
    <path class="letter" d="M64.75,19.27v22.31h6.25V19.27h-6.25Z"/>
  </g>
</svg>